<mxfile host="app.diagrams.net" modified="2024-02-19T22:32:51.815Z" agent="Mozilla/5.0 (Windows NT 10.0; Win64; x64) AppleWebKit/537.36 (KHTML, like Gecko) Chrome/121.0.0.0 Safari/537.36" version="23.1.2" etag="Df9YdkpYC8UxyJc7CJ2L" type="github">
  <diagram name="Page-1" id="tihYrRtgzHpLgm1dw1Hp">
    <mxGraphModel>
      <root>
        <mxCell id="0" />
        <mxCell id="1" parent="0" />
      </root>
    </mxGraphModel>
  </diagram>
</mxfile>
